<?xml version="1.0" encoding="UTF-8"?>
<!DOCTYPE svg PUBLIC "-//W3C//DTD SVG 1.1//EN" "http://www.w3.org/Graphics/SVG/1.1/DTD/svg11.dtd">
<!-- Creator: CorelDRAW 2020 (64 Bit) -->
<svg xmlns="http://www.w3.org/2000/svg" xml:space="preserve" width="495.829mm" height="290.27mm" version="1.1" style="shape-rendering:geometricPrecision; text-rendering:geometricPrecision; image-rendering:optimizeQuality; fill-rule:evenodd; clip-rule:evenodd"
viewBox="0 0 49580.54 29025.61"
 xmlns:xlink="http://www.w3.org/1999/xlink"
 xmlns:xodm="http://www.corel.com/coreldraw/odm/2003">
 <defs>
  <style type="text/css">
   <![CDATA[
    .fil0 {fill:none}
    .fil4 {fill:#FEFEFE;fill-rule:nonzero}
    .fil5 {fill:#0B345A;fill-rule:nonzero}
    .fil3 {fill:#2F2E41;fill-rule:nonzero}
    .fil2 {fill:#A0616A;fill-rule:nonzero}
    .fil1 {fill:#E6E6E6;fill-rule:nonzero}
    .fil8 {fill:#F0F0F0;fill-rule:nonzero}
    .fil6 {fill:#F2F2F2;fill-rule:nonzero}
    .fil7 {fill:#FEB8B8;fill-rule:nonzero}
    .fil9 {fill:black;fill-rule:nonzero;fill-opacity:0.101961}
   ]]>
  </style>
 </defs>
 <g id="Camada_x0020_1">
  <metadata id="CorelCorpID_0Corel-Layer"/>
  <rect class="fil0" x="-0" y="-0" width="49580.54" height="29025.61"/>
  <g id="_1750157058624">
   <path class="fil1" d="M44518.82 21930.56c0,263.02 -2407.59,291.03 -5370.78,476.23 -2960.43,185.03 -5370.78,-213.21 -5370.78,-476.23 0,-263.02 2421.46,-792.22 5370.78,-476.23 2963.19,317.48 5370.78,213.22 5370.78,476.23z"/>
   <g>
    <path class="fil2" d="M38519.36 9723.37l67.31 706.76c0,0 -33.65,1716.41 -67.31,1817.37 -28.99,80.22 -62.92,159.28 -100.95,235.62l-370.2 -1009.65 -0.03 -1682.79 471.18 -67.31z"/>
    <polygon class="fil2" points="35254.8,19449.68 35322.14,20156.46 35894.27,20089.12 35759.63,19382.38 "/>
    <path class="fil3" d="M35524.06 19786.25c0,0 -235.59,0 -269.24,134.62 -33.65,134.62 -302.9,875.04 -302.9,875.04 0,0 -403.86,875.04 201.93,942.34 605.79,67.31 807.72,-370.2 807.72,-504.83 0,-134.62 33.66,-538.48 67.31,-572.13 33.65,-33.65 134.62,-302.9 67.31,-336.55 -67.32,-33.66 -201.93,-335.62 -201.93,-335.62 0,0 -134.62,-270.19 -370.2,-202.87z"/>
    <polygon class="fil2" points="38754.94,19826.91 38942.68,20829.56 39613.15,20373.81 39344.95,19735.77 "/>
    <path class="fil3" d="M39076.1 20598.93c0,0 -295.83,-266.24 -266.24,-88.75 29.59,177.49 0,1124.13 207.08,1124.13 207.08,0 2662.41,-354.98 2544.08,-621.23 -118.33,-266.25 -739.55,-384.57 -739.55,-384.57 0,0 -1242.46,-650.81 -1301.62,-473.32 -59.16,177.49 -118.33,236.66 -118.33,236.66l-325.41 207.08z"/>
    <circle class="fil2" cx="37408.75" cy="5482.81" r="908.69"/>
    <path class="fil2" d="M36937.57 6088.62c0,0 67.31,572.13 -639.45,774.07 -706.76,201.94 1716.41,942.34 1884.69,572.13 0,0 -302.9,-370.2 -235.59,-740.41 67.31,-370.21 0,-875.04 0,-875.04l-1009.65 269.25z"/>
    <path class="fil4" d="M38519.36 7737.72c0,0 403.86,33.66 437.52,235.59 33.66,201.93 0,807.72 0,807.72 0,0 269.24,807.72 0,1009.65 -269.24,201.93 -976,235.59 -976,235.59l538.48 -2288.55z"/>
    <path class="fil5" d="M35086.54 12314.82l-370.2 605.79c0,0 100.97,235.59 67.31,403.86 -33.66,168.27 -33.66,269.24 0,336.55 33.66,67.32 168.27,1514.47 134.62,1682.75 -33.65,168.28 -67.31,235.59 -33.66,302.9 33.65,67.31 33.66,67.31 33.66,134.62l0 370.2 100.97 3230.89c0,0 -269.24,134.62 67.31,235.59 336.54,100.97 774.07,134.62 841.38,-201.93 67.31,-336.55 -67.31,-2759.72 0,-2827.03 67.31,-67.32 134.62,33.66 100.97,-134.62 -18.97,-88.28 -30.51,-178.93 -33.68,-269.22l33.66 -134.62 538.48 -1985.64 1245.26 2759.69 740.41 3096.27c0,0 1245.24,0 1043.31,-437.52 -201.93,-437.52 -807.72,-3567.45 -807.72,-3567.45 0,0 33.66,-134.62 0,-235.59 -33.66,-100.97 -100.97,-100.97 -100.97,-168.27 0,-67.31 -33.66,-100.97 -33.66,-168.27 0,-67.31 -33.66,-269.24 -33.66,-269.24l-235.59 -2120.27 -3298.2 -639.44z"/>
    <path class="fil3" d="M36767.89 4854.91c-10.12,0.92 -20.38,1.41 -30.56,1.41 -43.1,0 -85.92,-8.43 -125.77,-24.74 -47.44,-24.16 -82.82,-80.99 -64.45,-130.94l61.54 -10.54 -35.65 -129.42 76.06 -9.09 0.24 -135.58 92.28 6.96 -34.37 -166.16c329.47,-92.97 672.14,-178.71 1010.87,-129.14 338.73,49.57 675.21,266.9 763.46,597.67 45.83,171.73 21.47,354.57 -21.96,526.92 -87.34,346.61 -184.2,673.66 -409.97,950.77 -7.9,-149.81 -83.11,-299.64 -91.01,-449.45 -0.55,-69.33 -10.38,-138.55 -28.67,-205.32 -39.54,-122.86 -134.51,-218.27 -207.54,-324.69 -61.4,-89.49 -79.46,-171.12 -91.98,-275.54 -14.89,-124.21 -39.03,-103.81 -171.65,-102.02 -230.29,3.12 -460.58,6.08 -690.88,8.9z"/>
    <path class="fil4" d="M36500.05 6694.41c0,0 272.48,746.3 1516.1,457.29 0,0 839.76,552.36 873.42,686.99 33.66,134.62 -639.45,1851.03 -639.45,1851.03l-67.31 1312.55c0,0 437.52,976 370.2,1615.44 -67.32,639.44 403.86,673.11 -201.93,706.76 -525.89,29.22 -2655.28,-663.11 -3180.41,-959.17 -79.78,-44.98 -265.73,153.3 -252.42,117.79 100.97,-269.24 0,-235.59 100.97,-302.9 100.97,-67.31 269.24,-2423.17 269.24,-2423.17 0,0 -201.93,-2557.79 33.66,-2625.1 235.59,-67.32 1177.93,-437.5 1177.93,-437.5z"/>
    <polygon class="fil2" points="34548.05,9151.23 34379.79,10160.89 34649.02,12584.06 34817.31,12853.29 35137.02,12398.94 35120.19,10531.1 35490.4,9487.79 "/>
    <path class="fil4" d="M35423.09 7165.57c0,0 -403.86,-33.66 -504.83,302.9 -100.97,336.55 -942.34,1615.45 -774.07,1750.07 168.27,134.61 1447.17,605.79 1480.83,572.13 33.66,-33.66 -201.93,-2625.09 -201.93,-2625.09z"/>
   </g>
  </g>
  <g id="_1748138376368">
   <ellipse class="fil6" cx="12553.97" cy="22098.02" rx="4628.28" ry="600.61"/>
   <g>
    <polygon id="a9e5a31c-10e6-4175-9779-4994367672f7" class="fil7" points="13671.83,20899.34 13718.75,21525.07 14672.89,21212.22 14281.91,20742.95 " data-name="Path 4"/>
    <polygon id="f499a4aa-6a35-40fc-8432-e4c7ab26d048" class="fil7" points="10199.22,20696 10246.23,21306.01 10778.06,21384.24 11090.91,21087.03 10731.14,20508.26 " data-name="Path 5"/>
    <path id="fb70bf31-eafd-4d8a-8310-5130d8d104e1" class="fil5" d="M9808.18 12906.19c0,0 -422.35,500.54 109.5,1267.02 531.85,766.48 1173.15,1517.32 1173.15,1517.32l1188.94 2252.46c0,0 610.05,2205.56 750.83,2268.11 140.78,62.55 218.98,-187.7 140.78,78.2 -78.2,265.91 -31.28,250.29 31.28,265.99 62.55,15.7 234.61,-15.64 172.05,93.88 -62.56,109.5 -109.5,109.5 15.64,109.5 125.14,0 172.05,-78.2 172.05,31.28 0,109.46 109.5,359.75 109.5,359.75 0,0 766.47,-218.98 797.76,-312.84 31.29,-93.88 -203.34,-140.78 -156.42,-234.62 46.93,-93.84 62.56,-93.87 62.56,-234.62 0,-140.74 -93.87,-172.05 -93.87,-172.05 0,0 -78.2,-31.28 -46.93,-93.87 31.28,-62.6 156.42,-31.28 0,-109.51 -156.41,-78.23 -797.81,-2471.51 -797.81,-2471.51 0,0 0,-1188.94 -203.34,-1579.93 -203.34,-390.98 -46.93,-3175.37 -531.98,-3206.64 -485.07,-31.28 -2893.71,172.09 -2893.71,172.09z" data-name="Path 6"/>
    <path id="a89455c2-275d-4b70-b13c-192fbe474176" class="fil5" d="M9964.61 13797.77l93.87 2424.53c0,0 -469.27,2346.35 -312.84,3065.86 156.41,719.53 46.92,625.69 140.78,750.83 93.86,125.14 172.05,62.56 93.87,172.06 -78.19,109.49 -124.98,140.77 0,265.98 124.98,125.21 187.7,422.35 187.7,422.35l797.76 -78.2c0,0 -203.34,-359.76 -124.99,-438 78.36,-78.23 281.57,46.93 124.99,-124.98 -156.58,-171.91 -250.29,-93.87 -156.42,-172.05 93.88,-78.19 234.62,-46.93 109.5,-172.06 -125.1,-125.13 -265.99,-124.98 -140.77,-172.05 125.2,-47.07 265.99,0 203.34,-93.88 -62.65,-93.87 -140.78,-203.34 -140.78,-203.34l187.7 -1423.44c0,0 218.98,-469.27 156.42,-672.61 -62.56,-203.34 265.99,-1877.07 265.99,-1877.07l-1486.11 -1673.94z" data-name="Path 7"/>
    <path id="a3024be5-ad86-493a-9bfb-258ab58160a1" class="fil3" d="M10308.65 21008.82c0,0 -156.41,-156.42 -203.34,-62.56 -46.92,93.86 -390.97,938.53 -187.7,1001.09 203.27,62.56 500.54,124.98 656.97,78.2 156.43,-46.79 484.91,-265.99 875.96,-265.99 391.04,0 719.52,-172.05 719.52,-234.62 0,-62.56 62.57,-437.99 -234.61,-437.99 -297.18,0 -844.67,-344.12 -844.67,-344.12 0,0 -124.98,-250.29 -187.7,-234.62 -62.73,15.68 -15.64,516.19 -15.64,516.19 0,0 -359.7,344.18 -578.78,-15.58z" data-name="Path 8"/>
    <path id="a57c92ce-496a-44de-934b-3ddd78679762" class="fil3" d="M13781.3 21212.16c0,0 -140.77,-344.12 -281.56,-265.99 -140.78,78.14 -46.93,1047.95 -46.93,1047.95 0,0 124.98,203.34 484.91,156.41 359.92,-46.92 1313.94,-156.41 1532.95,-109.5 219.02,46.91 813.39,-218.98 656.98,-578.77 0,0 -78.2,-203.34 -453.63,-187.71 -375.44,15.64 -1063.69,-437.99 -1063.69,-437.99 0,0 -109.5,-312.85 -140.78,-281.57 -31.27,31.29 -62.56,578.78 -62.56,578.78 0,0 -406.71,266.09 -625.69,78.39z" data-name="Path 9"/>
    <circle id="fa315d33-3eeb-4d45-ab88-aeb0e9694c5a" class="fil7" cx="11732.16" cy="5882.85" r="907.25" data-name="Ellipse 2"/>
    <path id="fbae87ba-2986-46ef-9932-134b7e0cae24" class="fil7" d="M11028.28 5945.4c0,0 -484.91,969.81 -656.98,1063.69 -172.06,93.87 1173.15,672.63 1173.15,672.63 0,0 218.98,-954.17 484.91,-1157.51 265.93,-203.34 -1001.08,-578.8 -1001.08,-578.8z" data-name="Path 10"/>
    <path id="fc15680c-e415-4000-ac02-b1f296562473" class="fil7" d="M12420.4 13875.97l62.57 594.41c0,0 672.61,-234.62 453.63,-672.61l-516.2 78.2z" data-name="Path 11"/>
    <path id="ae3770ab-4aa4-41b9-9f4d-4c69df699916" class="fil8" d="M12686.25 12984.38c-469.27,500.42 -2956.26,78.06 -2956.26,78.06l31.15 -359.72 -312.84 -328.25 93.8 -1533.05c0,0 -281.37,-719.46 -328.25,-1814.41 -0.51,-13.69 -0.87,-27.79 -0.87,-41.63 0,-53.36 4.45,-106.94 13.01,-159.57 161.26,-980.87 1758.43,-1612.61 1802.3,-1597.77 22.08,7.28 257.18,129.79 502.53,258.68 281.66,147.97 576.65,304.45 576.65,304.45 375.47,141.01 312.85,2393.5 438.1,2596.82 125.23,203.32 0,906.94 0,906.94l140.68 672.58c0,0 469.4,516.48 0.01,1016.89z" data-name="Path 12"/>
    <path id="b41fb511-fd5e-48e5-b733-0d9230f6b6d5" class="fil9" d="M11170.24 8018.6c0,0 -437.99,1313.94 -344.12,2205.55 93.88,891.63 1110.6,3441.3 1110.6,3441.3l343.96 187.7 0 437.96 242.05 -655.62 -665.62 -1391.74c0,0 830.58,-4803.9 -686.87,-4225.16z" data-name="Path 13"/>
    <path id="efbdbf49-3b58-4bc5-8391-5fbab31acdf7" class="fil9" d="M11581.03 7624.36c-453.83,-250.24 -1142.13,406.99 -1861.62,1110.66 -258.39,252.63 -407.83,227.22 -493.53,90.77 161.26,-980.87 1758.44,-1612.61 1802.3,-1597.78 22.08,7.28 257.19,129.8 502.53,258.69l50.32 137.67z" data-name="Path 14"/>
    <path id="a2828270-d54b-4ede-bb2b-8639f55947f0" class="fil8" d="M11580.8 7503.44l-187.7 -516.18c0,0 -1282.66,-610.05 -2127.33,0l-140.78 875.95c0,0 -124.98,1454.72 594.41,750.83 719.41,-703.89 1407.84,-1360.89 1861.4,-1110.61z" data-name="Path 15"/>
    <path id="f68da632-d878-40c3-a103-67cfc5c970db" class="fil8" d="M11215.94 7806.83c0,0 -437.99,1313.93 -344.12,2205.55 93.88,891.63 1110.6,3441.29 1110.6,3441.29l344.12 187.83 0 437.99 719.53 -203.34 -156.42 -516.18c0,0 250.29,-312.85 78.2,-406.71 -172.09,-93.86 -140.78,-610.05 -140.78,-610.05 0,0 -93.8,-5115.16 -1611.11,-4536.39z" data-name="Path 16"/>
    <path id="f57115f6-7f5b-4177-880b-f5eff1305e5b" class="fil3" d="M10923.35 6262.64c14.81,-70.12 12.82,-145.55 46.41,-208.85 50.41,-94.89 166.26,-134.6 273.33,-143.95 136.67,-11.9 274.4,11.76 411.26,2.4 136.87,-9.37 283.08,-61.54 351.21,-180.59 27.18,-47.49 40.58,-103.42 76.62,-144.59 75.03,-85.7 211.78,-72.44 319.57,-35.7 107.8,36.74 220.26,90.38 330.47,61.67 92.69,-259.29 -21.44,-558.39 -218.82,-750.38 -197.38,-191.99 -463.57,-295.31 -727.95,-372.32 -348.7,-101.59 -741.12,-161.61 -1061.72,9.04 -464.91,247.43 -628.96,902.38 -586.08,1390.53 16.22,184.53 42.73,393.48 191.9,518.05 218.63,182.58 527.78,166.92 593.8,-145.29z" data-name="Path 17"/>
   </g>
  </g>
 </g>
</svg>
